<svg xmlns="http://www.w3.org/2000/svg" xmlns:xlink="http://www.w3.org/1999/xlink" width="1440" height="481" version="1.1" viewBox="0 0 1440 481"><title>1</title><desc>Created with Sketch.</desc><defs><linearGradient id="linearGradient-1" x1="100%" x2="0%" y1="50%" y2="50%"><stop offset="0%" stop-color="#A25CFF"/><stop offset="100%" stop-color="#A70FF6"/></linearGradient></defs><g id="Marshmello_landing-page" fill="none" fill-rule="evenodd" stroke="none" stroke-width="1"><g id="Marshmello_landngpage-Copy" transform="translate(0.000000, -2629.000000)"><g id="1" transform="translate(0.000000, 2629.000000)"><rect id="Rectangle" width="1439" height="480" x="1" y="0" fill="url(#linearGradient-1)"/><path id="Rectangle" fill="#FFF" d="M1334,100 L1440,100 L1440,318 L1334,318 C1331.23858,318 1329,315.761424 1329,313 L1329,105 C1329,102.238576 1331.23858,100 1334,100 Z" opacity=".112"/><g id="Group-4" fill="#FFF" opacity=".112" transform="translate(618.000000, 293.000000)"><path id="Rectangle-Copy-8" d="M53,0 L211,-8.8817842e-16 C213.761424,-1.61112656e-14 216,2.23857625 216,5 L216,187 L48,187 L48,5 C48,2.23857625 50.2385763,-3.80913106e-16 53,-8.8817842e-16 Z"/><path id="Rectangle-Copy-9" d="M5,26 L163,26 C165.761424,26 168,28.2385763 168,31 L168,188 L0,188 L8.8817842e-16,31 C5.50001544e-16,28.2385763 2.23857625,26 5,26 Z"/></g><path id="Rectangle-Copy-7" fill="#FFF" d="M1286,126 L1439,126 L1439,344 L1286,344 C1283.23858,344 1281,341.761424 1281,339 L1281,131 C1281,128.238576 1283.23858,126 1286,126 Z" opacity=".112"/><path id="Rectangle-Copy-10" fill="#FFF" d="M1,50 L109,50 C111.761424,50 114,52.2385763 114,55 L114,263 C114,265.761424 111.761424,268 109,268 L1,268 L1,50 Z" opacity=".112"/><path id="Rectangle-Copy-11" fill="#FFF" d="M5.89750471e-13,76 L61,76 C63.7614237,76 66,78.2385763 66,81 L66,289 C66,291.761424 63.7614237,294 61,294 L5.89750471e-13,294 L5.89750471e-13,76 Z" opacity=".112"/></g></g></g></svg>